<svg width="374" height="441" viewBox="0 0 374 441" fill="none" xmlns="http://www.w3.org/2000/svg">
<path d="M38.25 250.191V59.9537L49.769 43.0792L61.258 26.25L186.478 26.2736L311.704 26.2971L323.901 43.0693L336.125 59.8796V250.153V440.256H187.188H38.25V250.191Z" fill="#E3CAA7" stroke="black" stroke-width="0.5"/>
<path d="M96.2285 228.665C96.2139 231.038 97.8398 233.44 99.7588 234.305L99.0557 235.213C97.5762 234.488 96.2944 232.957 95.6719 231.097C95.064 233.067 93.7822 234.708 92.2588 235.477L91.5264 234.51C93.46 233.616 95.0713 231.141 95.0859 228.665V226.292H96.2285V228.665ZM102.337 225.164V238.216H101.18V225.164H102.337ZM115.359 225.164V233.06H114.202V230.086H111.99V229.134H114.202V225.164H115.359ZM115.359 233.763V238.011H106.849V233.763H115.359ZM107.991 234.686V237.073H114.231V234.686H107.991ZM112.181 226.541V227.479H104.578V226.541H107.815V225.047H108.943V226.541H112.181ZM108.372 228.152C110.145 228.152 111.39 229.104 111.404 230.467C111.39 231.873 110.145 232.796 108.372 232.796C106.6 232.796 105.354 231.873 105.354 230.467C105.354 229.104 106.6 228.152 108.372 228.152ZM108.372 229.046C107.244 229.046 106.453 229.632 106.453 230.467C106.453 231.331 107.244 231.902 108.372 231.917C109.5 231.902 110.291 231.331 110.291 230.467C110.291 229.632 109.5 229.046 108.372 229.046ZM121.219 225.647C123.167 225.662 124.588 226.834 124.588 228.533C124.588 230.232 123.167 231.404 121.219 231.404C119.241 231.404 117.835 230.232 117.835 228.533C117.835 226.834 119.241 225.662 121.219 225.647ZM121.219 226.614C119.915 226.614 118.948 227.405 118.963 228.533C118.948 229.676 119.915 230.467 121.219 230.467C122.508 230.467 123.475 229.676 123.475 228.533C123.475 227.405 122.508 226.614 121.219 226.614ZM128.279 225.164V231.858H127.137V225.164H128.279ZM128.279 232.488V235.623H120.97V237.088H128.748V238.011H119.842V234.759H127.137V233.411H119.812V232.488H128.279ZM135.12 228.665C135.105 231.038 136.731 233.44 138.65 234.305L137.947 235.213C136.468 234.488 135.186 232.957 134.563 231.097C133.956 233.067 132.674 234.708 131.15 235.477L130.418 234.51C132.352 233.616 133.963 231.141 133.978 228.665V226.292H135.12V228.665ZM141.229 225.164V238.216H140.071V225.164H141.229Z" fill="black"/>
<path d="M110.447 262.965V263.858H105.071V265.074H108.923V267.887H101.189V269.161H109.319V270.04H100.046V267.066H107.795V265.938H100.017V265.074H103.943V263.858H98.5962V262.965H110.447ZM105.071 257.091V258.307H109.246V259.215H105.159C105.371 260.511 107.407 261.332 109.802 261.485L109.451 262.364C107.275 262.181 105.312 261.507 104.514 260.27C103.716 261.507 101.753 262.181 99.563 262.364L99.2261 261.485C101.606 261.332 103.643 260.511 103.87 259.215H99.812V258.307H103.943V257.091H105.071ZM122.678 257.164V270.187H121.58V257.164H122.678ZM120.042 257.486V269.513H118.958V262.804H116.76V261.866H118.958V257.486H120.042ZM115.369 260.885C115.369 263.141 116.379 265.382 118.181 266.422L117.478 267.271C116.196 266.502 115.288 265.096 114.841 263.434C114.365 265.228 113.42 266.759 112.117 267.579L111.384 266.715C113.201 265.631 114.255 263.258 114.255 260.885V259.654H111.75V258.702H117.756V259.654H115.369V260.885ZM128.918 261.163C128.904 263.258 130.413 265.558 132.302 266.451L131.643 267.359C130.178 266.649 128.94 265.096 128.362 263.331C127.761 265.25 126.45 266.935 124.993 267.682L124.29 266.773C126.165 265.865 127.776 263.39 127.791 261.163V259.464H124.758V258.512H131.848V259.464H128.918V261.163ZM134.587 257.164V262.438H136.77V263.419H134.587V270.187H133.445V257.164H134.587Z" fill="black"/>
<path d="M108.608 297.829V298.781H103.306V301.447H102.163V298.781H96.6846V297.829H108.608ZM107.056 291.809V296.335H98.2373V291.809H107.056ZM99.3652 292.717V295.412H105.913V292.717H99.3652ZM107.275 302.941V303.908H98.208V300.158H99.3652V302.941H107.275ZM119.844 291.164V294.797H121.807V295.778H119.844V299.572H118.701V291.164H119.844ZM115.728 299.66C118.379 299.66 119.99 300.495 119.99 301.916C119.99 303.337 118.379 304.157 115.728 304.157C113.076 304.157 111.45 303.337 111.465 301.916C111.45 300.495 113.076 299.66 115.728 299.66ZM115.728 300.568C113.779 300.568 112.593 301.052 112.607 301.916C112.593 302.766 113.779 303.264 115.728 303.264C117.676 303.264 118.848 302.766 118.848 301.916C118.848 301.052 117.676 300.568 115.728 300.568ZM117.456 292.658V293.566H109.692V292.658H113.003V291.062H114.146V292.658H117.456ZM113.574 294.24C115.449 294.24 116.694 295.148 116.709 296.54C116.694 297.946 115.449 298.84 113.574 298.84C111.685 298.84 110.425 297.946 110.439 296.54C110.425 295.148 111.685 294.24 113.574 294.24ZM113.574 295.104C112.344 295.119 111.523 295.69 111.538 296.54C111.523 297.39 112.344 297.946 113.574 297.946C114.79 297.946 115.61 297.39 115.625 296.54C115.61 295.69 114.79 295.119 113.574 295.104ZM132.925 292.38C132.925 294.211 135.327 295.808 137.671 296.13L137.202 297.067C135.181 296.73 133.181 295.61 132.339 294.006C131.504 295.617 129.497 296.73 127.476 297.067L127.007 296.13C129.351 295.808 131.738 294.24 131.738 292.38V291.633H132.925V292.38ZM138.257 298.503V299.47H132.866V304.187H131.738V299.47H126.392V298.503H138.257Z" fill="black"/>
<path d="M167.527 136.238V149.07H165.984V144.383H161.492C160.691 145.408 159.402 146.023 157.918 146.023C155.32 146.023 153.406 144.227 153.406 141.688C153.406 139.148 155.32 137.352 157.918 137.332C159.393 137.342 160.652 137.947 161.473 138.953H165.984V136.238H167.527ZM168.016 151.922V153.211H156.375V147.723H157.918V151.922H168.016ZM157.918 138.699C156.141 138.719 154.871 139.949 154.871 141.688C154.871 143.426 156.141 144.656 157.918 144.656C159.617 144.656 160.926 143.426 160.926 141.688C160.926 139.949 159.617 138.719 157.918 138.699ZM162.176 140.223C162.322 140.672 162.41 141.16 162.41 141.688C162.41 142.195 162.322 142.674 162.176 143.113H165.984V140.223H162.176ZM183.992 136.219V139.988H186.609V141.277H183.992V145.066H182.469V136.219H183.992ZM179.188 137.215V144.148H171.16V137.215H179.188ZM172.664 138.465V142.918H177.703V138.465H172.664ZM183.992 145.887V150.125H174.461V152.117H184.637V153.348H172.957V148.953H182.469V147.117H172.918V145.887H183.992ZM202.098 136.219V146.57H200.555V142.02H197.059V140.75H200.555V136.219H202.098ZM196.336 147.117C199.949 147.117 202.156 148.289 202.156 150.34C202.156 152.391 199.949 153.562 196.336 153.582C192.723 153.562 190.516 152.391 190.516 150.34C190.516 148.289 192.723 147.117 196.336 147.117ZM196.336 148.309C193.68 148.309 192.02 149.07 192.039 150.34C192.02 151.59 193.68 152.352 196.336 152.352C198.992 152.352 200.633 151.59 200.633 150.34C200.633 149.07 198.992 148.309 196.336 148.309ZM193.738 139.402C193.738 141.668 195.477 143.816 198.016 144.695L197.215 145.926C195.262 145.223 193.748 143.768 193.016 141.961C192.254 144.002 190.643 145.633 188.582 146.414L187.781 145.184C190.359 144.246 192.195 141.902 192.195 139.422V138.777H188.27V137.488H197.625V138.777H193.738V139.402ZM210.828 139.5C210.809 141.883 212.625 144.09 215.184 144.988L214.402 146.219C212.43 145.506 210.896 144.031 210.125 142.176C209.393 144.256 207.82 145.857 205.77 146.648L204.93 145.418C207.566 144.48 209.305 142.137 209.324 139.441V137.293H210.828V139.5ZM218.562 136.219V141.551H221.18V142.859H218.562V149.051H217.039V136.219H218.562ZM219.363 151.922V153.211H207.723V147.82H209.285V151.922H219.363Z" fill="black"/>
<path d="M88.3281 191L88.3086 189.711L93.1328 184.633C94.8125 182.855 95.6133 181.898 95.6133 180.59C95.6133 179.145 94.3828 178.188 92.8008 178.188C91.1211 178.188 90.0469 179.262 90.0469 180.844H88.3867C88.3672 178.344 90.3008 176.664 92.8594 176.664C95.418 176.664 97.2539 178.383 97.2539 180.59C97.2539 182.172 96.5117 183.402 94.0117 185.98L90.7695 189.32V189.438H97.5078V191H88.3281ZM104.695 191.195C101.551 191.195 99.7539 188.559 99.7539 183.93C99.7539 179.34 101.59 176.664 104.695 176.664C107.801 176.664 109.637 179.34 109.637 183.93C109.637 188.559 107.82 191.195 104.695 191.195ZM104.695 189.633C106.727 189.633 107.918 187.582 107.918 183.93C107.918 180.277 106.727 178.188 104.695 178.188C102.664 178.188 101.453 180.277 101.453 183.93C101.453 187.582 102.645 189.633 104.695 189.633ZM111.98 191L111.961 189.711L116.785 184.633C118.465 182.855 119.266 181.898 119.266 180.59C119.266 179.145 118.035 178.188 116.453 178.188C114.773 178.188 113.699 179.262 113.699 180.844H112.039C112.02 178.344 113.953 176.664 116.512 176.664C119.07 176.664 120.906 178.383 120.906 180.59C120.906 182.172 120.164 183.402 117.664 185.98L114.422 189.32V189.438H121.16V191H111.98ZM123.055 188.109V186.664L129.422 176.859H131.59V186.566H133.562V188.109H131.59V191H129.91V188.109H123.055ZM124.949 186.566H129.91V179.086H129.734L124.949 186.449V186.566ZM149.656 175.238V188.09H148.113V182.074H143.113V180.844H148.113V178.754H143.113V177.523H148.113V175.238H149.656ZM150.125 190.922V192.211H138.465V186.996H140.008V190.922H150.125ZM137.84 176.488V184.203C140.232 184.193 142.537 184.066 145.184 183.578L145.34 184.848C142.508 185.375 140.145 185.492 137.605 185.512H136.297V176.488H137.84ZM166.57 183.363V184.613H161.199V189.105H168.445V190.395H152.547V189.105H159.695V184.613H154.578V176.645H166.395V177.895H156.121V183.363H166.57ZM190.73 185.18V186.469H183.484V192.582H181.98V186.469H174.832V185.18H190.73ZM182.742 175.922C186.395 175.922 188.855 177.387 188.855 179.75C188.855 182.055 186.395 183.52 182.742 183.52C179.09 183.52 176.629 182.055 176.629 179.75C176.629 177.387 179.09 175.922 182.742 175.922ZM182.742 177.172C180.027 177.172 178.191 178.188 178.211 179.75C178.191 181.293 180.027 182.289 182.742 182.289C185.438 182.289 187.293 181.293 187.293 179.75C187.293 178.188 185.438 177.172 182.742 177.172ZM206.531 175.219V185.57H204.988V181.02H201.492V179.75H204.988V175.219H206.531ZM200.77 186.117C204.383 186.117 206.59 187.289 206.59 189.34C206.59 191.391 204.383 192.562 200.77 192.582C197.156 192.562 194.949 191.391 194.949 189.34C194.949 187.289 197.156 186.117 200.77 186.117ZM200.77 187.309C198.113 187.309 196.453 188.07 196.473 189.34C196.453 190.59 198.113 191.352 200.77 191.352C203.426 191.352 205.066 190.59 205.066 189.34C205.066 188.07 203.426 187.309 200.77 187.309ZM198.172 178.402C198.172 180.668 199.91 182.816 202.449 183.695L201.648 184.926C199.695 184.223 198.182 182.768 197.449 180.961C196.688 183.002 195.076 184.633 193.016 185.414L192.215 184.184C194.793 183.246 196.629 180.902 196.629 178.422V177.777H192.703V176.488H202.059V177.777H198.172V178.402ZM230.34 189.066V190.355H214.441V189.066H221.59V184.828H216.316V176.684H228.367V184.828H223.094V189.066H230.34ZM217.82 177.914V183.598H226.883V177.914H217.82ZM237.41 176.488C240.145 176.488 242.078 178.148 242.078 180.57C242.078 182.992 240.145 184.652 237.41 184.652C234.676 184.652 232.703 182.992 232.723 180.57C232.703 178.148 234.676 176.488 237.41 176.488ZM237.41 177.836C235.555 177.836 234.207 178.949 234.227 180.57C234.207 182.191 235.555 183.305 237.41 183.305C239.246 183.305 240.574 182.191 240.574 180.57C240.574 178.949 239.246 177.836 237.41 177.836ZM245.965 175.219V192.621H244.441V175.219H245.965ZM231.824 187.484C235.027 187.484 239.441 187.465 243.289 186.898L243.406 188.031C239.441 188.773 235.164 188.793 232.039 188.793L231.824 187.484ZM262.938 176.977V178.715C262.918 180.844 262.918 183.227 262.293 186.723L260.73 186.547C261.395 183.227 261.395 180.785 261.395 178.715V178.246H250.691V176.977H262.938ZM264.832 188.852V190.121H249.012V188.852H255.223V182.641H256.727V188.852H264.832ZM272.117 179.887C272.117 182.953 274.148 186.098 276.609 187.309L275.672 188.539C273.758 187.533 272.156 185.482 271.395 183.07C270.613 185.639 268.973 187.826 267.02 188.871L266.043 187.641C268.582 186.391 270.594 183.051 270.613 179.887V176.723H272.117V179.887ZM279.734 175.219V182.27H282.645V183.598H279.734V192.582H278.211V175.219H279.734Z" fill="black"/>
<path d="M82.25 214.25H290.749V313.75H82.25V243.118V214.25Z" stroke="black" stroke-width="0.5"/>
<line y1="-0.25" x2="209.001" y2="-0.25" transform="matrix(0.999996 -0.0027915 0.00559645 0.999984 82 246.807)" stroke="black" stroke-width="0.5"/>
<line y1="-0.25" x2="209.001" y2="-0.25" transform="matrix(0.999996 -0.00289658 0.0057514 0.999983 82 281.721)" stroke="black" stroke-width="0.5"/>
<line y1="-0.25" x2="100.006" y2="-0.25" transform="matrix(0.0117408 -0.999931 -0.999981 -0.00622148 150.102 314)" stroke="black" stroke-width="0.5"/>
<path d="M198.144 292.395V303H196.811V293.771H196.752L194.174 295.485V294.152L196.811 292.395H198.144ZM204.442 303.146C202.084 303.146 200.736 301.169 200.736 297.697C200.736 294.255 202.113 292.248 204.442 292.248C206.771 292.248 208.148 294.255 208.148 297.697C208.148 301.169 206.786 303.146 204.442 303.146ZM204.442 301.975C205.966 301.975 206.859 300.437 206.859 297.697C206.859 294.958 205.966 293.391 204.442 293.391C202.919 293.391 202.011 294.958 202.011 297.697C202.011 300.437 202.904 301.975 204.442 301.975ZM225.111 297.829V298.781H219.809V301.447H218.666V298.781H213.188V297.829H225.111ZM223.559 291.809V296.335H214.74V291.809H223.559ZM215.868 292.717V295.412H222.416V292.717H215.868ZM223.778 302.941V303.908H214.711V300.158H215.868V302.941H223.778ZM236.347 291.164V294.797H238.31V295.778H236.347V299.572H235.204V291.164H236.347ZM232.23 299.66C234.882 299.66 236.493 300.495 236.493 301.916C236.493 303.337 234.882 304.157 232.23 304.157C229.579 304.157 227.953 303.337 227.968 301.916C227.953 300.495 229.579 299.66 232.23 299.66ZM232.23 300.568C230.282 300.568 229.096 301.052 229.11 301.916C229.096 302.766 230.282 303.264 232.23 303.264C234.179 303.264 235.351 302.766 235.351 301.916C235.351 301.052 234.179 300.568 232.23 300.568ZM233.959 292.658V293.566H226.195V292.658H229.506V291.062H230.648V292.658H233.959ZM230.077 294.24C231.952 294.24 233.197 295.148 233.212 296.54C233.197 297.946 231.952 298.84 230.077 298.84C228.188 298.84 226.928 297.946 226.942 296.54C226.928 295.148 228.188 294.24 230.077 294.24ZM230.077 295.104C228.847 295.119 228.026 295.69 228.041 296.54C228.026 297.39 228.847 297.946 230.077 297.946C231.293 297.946 232.113 297.39 232.128 296.54C232.113 295.69 231.293 295.119 230.077 295.104Z" fill="black"/>
</svg>
